<svg width="238" height="238" viewBox="0 0 238 238" fill="none" xmlns="http://www.w3.org/2000/svg">
<path fill-rule="evenodd" clip-rule="evenodd" d="M109.435 0.156306C80.2396 2.79665 55.2702 14.3646 35.5474 34.3867C22.2922 47.8432 11.8076 64.8954 5.56851 83.1456C-2.37521 106.383 -1.78696 135.854 7.12211 160.991C10.7602 171.256 18.7757 185.583 26.0067 194.747C37.735 209.608 60.5942 226.279 79.3698 233.664C85.3246 236.007 92.8809 237.809 97.1763 237.913L100.812 238V188.4V138.799L80.069 138.549C62.6555 138.338 58.9717 138.176 57.1169 137.538C52.1438 135.828 48.2769 132.506 46.3387 128.278C45.3622 126.148 45.3426 125.633 45.3426 101.883V77.6604L46.8771 74.5165C48.6307 70.9241 51.1039 68.5132 54.8982 66.6989C57.0955 65.6486 58.0949 65.4723 61.8901 65.4648C65.8018 65.4573 66.6269 65.6091 68.9649 66.7676C72.6581 68.5969 76.3722 72.7365 77.5379 76.3223C78.266 78.5635 78.4376 80.446 78.4376 86.2086C78.4376 94.3083 78.6165 94.7784 82.0738 95.7544C85.5809 96.745 90.4571 94.9636 97.6653 90.0591L101.045 87.7596V67.643C101.045 45.6091 101.112 44.9537 103.825 40.6397C105.502 37.9735 105.728 35.154 104.374 33.7887C103.898 33.3082 101.958 32.5268 100.063 32.0515L96.6165 31.1878L99.6463 30.3096C103.98 29.0529 104.774 28.666 104.774 27.8094C104.774 26.3773 106.265 21.8733 106.607 22.2734C107.008 22.7435 108.503 27.468 108.503 28.2673C108.503 28.5696 110.443 29.3778 112.814 30.0633C116.189 31.0388 118.088 31.3026 121.554 31.2772C125.055 31.2513 126.544 31.4619 128.664 32.2823C133.641 34.2081 138.197 38.8493 140.36 44.1968C141.308 46.54 141.363 47.6035 141.592 67.8531C141.793 85.7507 141.94 89.1907 142.53 89.9204C142.914 90.3962 141.93 89.8992 140.341 88.8165C136.547 86.2302 131.545 83.7224 129.359 83.3106C126.84 82.8362 123.736 83.4286 121.801 84.753L120.125 85.9006L118.213 84.6242C116.565 83.5245 115.842 83.3524 112.985 83.3807C108.863 83.4206 107.284 84.1075 99.76 89.1334C89.9928 95.6571 85.8299 97.3092 81.8678 96.233C79.8732 95.6914 76.9818 93.2053 75.3266 90.6092C73.2561 87.3614 74.4755 93.0031 76.8849 97.8184C79.8285 103.701 84.5736 107.055 91.3688 108.056L94.978 108.588L93.1634 110.764C88.8019 115.996 81.5131 122.312 80.7388 121.531C80.5249 121.315 79.484 117.046 78.4506 112.15C78.0316 110.163 77.2447 107.969 76.7026 107.273C75.7704 106.078 75.549 106.021 72.6487 106.238C68.2984 106.564 61.9171 108.405 60.6259 109.707C59.2374 111.108 59.2541 112.956 60.714 119.448C62.6322 127.976 64.9362 132.064 69.0274 134.196C75.1355 137.38 85.7059 134.532 91.8573 128.045C93.3601 126.461 95.5556 123.578 96.7358 121.639C101.585 113.672 104.022 110.026 105.636 108.323C106.775 107.119 109.51 105.45 113.914 103.269C117.532 101.478 120.681 100.012 120.912 100.012C121.144 100.012 122.458 100.776 123.832 101.709C125.206 102.643 127.488 103.922 128.902 104.553C131.832 105.86 140.091 107.98 142.53 108.051C143.978 108.093 144.03 108.135 142.996 108.425L141.831 108.752L141.709 126.479L141.586 144.206H151.121H160.656L160.799 130.924C160.941 117.698 160.947 117.632 162.17 115C163.898 111.284 166.363 108.735 169.955 106.951C172.817 105.53 173.382 105.419 177.713 105.419C181.726 105.419 182.71 105.581 184.702 106.57C191.541 109.964 193.936 116.251 194.564 132.452C194.729 136.719 194.612 145.898 194.303 152.851C193.833 163.449 193.59 165.903 192.801 168.031C191.617 171.223 188.281 174.67 184.622 176.482L181.918 177.821L161.874 178.056L141.831 178.291L141.71 207.793L141.591 237.295L143.109 237.29C145.287 237.282 156.412 233.958 162.878 231.383C177.714 225.476 188.764 218.215 200.709 206.528C223.752 183.984 236.527 156.752 237.918 127.212C238.263 119.867 237.491 107.506 236.179 99.3957C232.912 79.1959 224.924 61.193 211.929 44.7417C207.954 39.7088 196.472 28.2626 190.942 23.8188C176.606 12.2992 157.72 4.40972 136.936 1.2588C130.865 0.338253 114.621 -0.3129 109.435 0.156306ZM108.96 33.4977C107.984 34.6829 108.827 34.8451 110.464 33.7882L111.999 32.7971L110.774 32.7892C110.1 32.7849 109.284 33.1037 108.96 33.4977ZM167.017 89.0027C166.438 93.6797 163.851 99.8344 161.785 101.452C160.981 102.081 160.979 102.068 161.744 101.157C162.896 99.7873 165.695 93.5076 166.08 91.4319C166.468 89.3346 165.878 89.1442 164.784 91.0135C162.88 94.2645 158.051 97.2053 155.663 96.5683C155.187 96.4413 155.347 96.3388 156.073 96.3054C159.39 96.1536 163.248 92.9223 166.101 87.9058C166.578 87.0657 167.053 86.3778 167.156 86.3778C167.258 86.3778 167.196 87.5588 167.017 89.0027ZM152.926 95.5715C154.002 95.9105 154.457 96.202 153.937 96.2194C152.894 96.2542 147.033 93.5062 145.56 92.2923C145.047 91.8696 146.055 92.296 147.799 93.2391C149.543 94.1827 151.851 95.2321 152.926 95.5715ZM159.31 103.951C159.31 104.048 158.943 104.419 158.495 104.774C157.755 105.358 157.739 105.342 158.319 104.596C158.928 103.813 159.31 103.564 159.31 103.951ZM156.753 105.919C155.553 106.835 150.245 108.486 148.657 108.438C147.979 108.417 148.713 108.117 150.287 107.772C151.862 107.427 154.065 106.721 155.182 106.203C157.657 105.058 157.955 105.004 156.753 105.919ZM69.3481 108.475C68.7072 108.682 67.7633 108.857 67.2505 108.865L66.3183 108.879L67.2505 108.475C67.7633 108.252 68.7072 108.077 69.3481 108.084L70.5134 108.098L69.3481 108.475ZM146.375 108.786C146.055 108.917 145.531 108.917 145.21 108.786C144.89 108.656 145.152 108.549 145.793 108.549C146.434 108.549 146.696 108.656 146.375 108.786Z" fill="black"/>
</svg>
